<?xml version="1.0" encoding="iso-8859-1"?>
<!-- Generator: Adobe Illustrator 19.0.0, SVG Export Plug-In . SVG Version: 6.00 Build 0)  -->
<svg version="1.1" id="Capa_1" xmlns="http://www.w3.org/2000/svg" xmlns:xlink="http://www.w3.org/1999/xlink" x="0px" y="0px"
	 viewBox="0 0 505.698 505.698" style="enable-background:new 0 0 505.698 505.698;" xml:space="preserve">
<!-- <circle style="fill:#E1E6E8;" cx="252.849" cy="252.062" r="252.062"/> -->
<path style="fill:#FFFFFF;" d="M99.249,167.778l24.418,29.932v260.726c0,22.055,18.117,40.172,40.172,40.172h187.471
	c22.055,0,40.172-18.117,40.172-40.172V167.778H99.249z"/>
<path id="SVGCleanerId_0" style="fill:#183651;" d="M350.523,505.698H163.84c-26.782,0-48.049-21.268-48.049-48.049V200.074
	l-22.843-27.569c-1.575-2.363-2.363-5.514-0.788-8.665c1.575-2.363,3.938-4.726,7.089-4.726h291.446
	c4.726,0,7.877,3.151,7.877,7.877v290.659C398.572,484.431,377.305,505.698,350.523,505.698z M115.791,175.655l14.178,17.329
	c0.788,1.575,1.575,3.151,1.575,4.726v260.726c0,18.117,14.178,32.295,32.295,32.295h187.471c18.117,0,32.295-14.178,32.295-32.295
	V175.655H115.791z"/>
<path style="fill:#ccff33	;" d="M256.788,362.338c0,0-59.077-19.692-133.908-3.938v3.938v95.311
	c0,22.055,18.117,40.172,40.172,40.172h187.471c22.055,0,40.172-18.117,40.172-40.172v-91.372
	C365.489,371.791,315.077,378.88,256.788,362.338z"/>
<circle style="fill:#FFFFFF;" cx="311.926" cy="118.154" r="18.905"/>
<path style="fill:#183651;" d="M311.926,144.148c-14.966,0-26.782-11.815-26.782-26.782s11.815-25.994,26.782-25.994
	s26.782,11.815,26.782,26.782S326.105,144.148,311.926,144.148z M311.926,107.126c-6.302,0-11.028,4.726-11.028,11.028
	s4.726,11.028,11.028,11.028c6.302,0,11.028-4.726,11.028-11.028C322.166,111.852,317.44,107.126,311.926,107.126z"/>
<circle style="fill:#FFFFFF;" cx="218.191" cy="106.338" r="22.843"/>
<path style="fill:#183651;" d="M218.191,136.271c-16.542,0-30.72-13.391-30.72-30.72s14.178-29.932,30.72-29.932
	s30.72,13.391,30.72,30.72S235.52,136.271,218.191,136.271z M218.191,91.372c-7.877,0-14.966,6.302-14.966,14.966
	c0,7.877,6.302,14.966,14.966,14.966c7.877,0,14.966-6.302,14.966-14.966S226.855,91.372,218.191,91.372z"/>
<circle style="fill:#FFFFFF;" cx="270.966" cy="38.597" r="28.357"/>
<g>
	<path style="fill:#183651;" d="M270.966,74.831c-20.48,0-36.234-16.542-36.234-36.234c0-20.48,16.542-36.234,36.234-36.234
		c20.48,0,36.234,16.542,36.234,36.234C307.988,58.289,291.446,74.831,270.966,74.831z M270.966,17.329
		c-11.815,0-20.48,9.452-20.48,20.48c0,11.815,9.452,20.48,20.48,20.48c11.815,0,20.48-9.452,20.48-20.48
		C292.234,26.782,282.782,17.329,270.966,17.329z"/>
	<path style="fill:#183651;" d="M159.114,235.52h-35.446c-4.726,0-7.877-3.151-7.877-7.877c0-4.726,3.151-7.877,7.877-7.877h35.446
		c4.726,0,7.877,3.151,7.877,7.877C166.991,231.582,163.052,235.52,159.114,235.52z"/>
	<path style="fill:#183651;" d="M159.114,287.508h-35.446c-4.726,0-7.877-3.151-7.877-7.877s3.151-7.877,7.877-7.877h35.446
		c4.726,0,7.877,3.151,7.877,7.877S163.052,287.508,159.114,287.508z"/>
	<path style="fill:#183651;" d="M159.114,340.283h-35.446c-4.726,0-7.877-3.151-7.877-7.877s3.151-7.877,7.877-7.877h35.446
		c4.726,0,7.877,3.151,7.877,7.877S163.052,340.283,159.114,340.283z"/>
	<path style="fill:#183651;" d="M159.114,392.271h-35.446c-4.726,0-7.877-3.151-7.877-7.877c0-4.726,3.151-7.877,7.877-7.877h35.446
		c4.726,0,7.877,3.151,7.877,7.877C166.991,389.12,163.052,392.271,159.114,392.271z"/>
	<path style="fill:#183651;" d="M159.114,444.258h-35.446c-4.726,0-7.877-3.151-7.877-7.877c0-4.726,3.151-7.877,7.877-7.877h35.446
		c4.726,0,7.877,3.151,7.877,7.877S163.052,444.258,159.114,444.258z"/>
</g>
<circle style="fill:#FFFFFF;" cx="237.883" cy="252.062" r="29.145"/>
<path style="fill:#183651;" d="M237.883,289.083c-20.48,0-37.022-16.542-37.022-37.022s16.542-37.022,37.022-37.022
	c20.48,0,37.022,16.542,37.022,37.022C274.905,272.542,258.363,289.083,237.883,289.083z M237.883,230.794
	c-11.815,0-21.268,9.452-21.268,21.268s9.452,21.268,21.268,21.268c11.815,0,21.268-9.452,21.268-21.268
	C259.151,240.246,249.698,230.794,237.883,230.794z"/>
<circle style="fill:#FFFFFF;" cx="311.926" cy="425.354" r="29.145"/>
<path style="fill:#183651;" d="M311.926,462.375c-20.48,0-37.022-16.542-37.022-37.022s16.542-37.022,37.022-37.022
	c20.48,0,37.022,16.542,37.022,37.022S332.406,462.375,311.926,462.375z M311.926,403.298c-11.815,0-21.268,9.452-21.268,21.268
	c0,11.815,9.452,21.268,21.268,21.268c11.815,0,21.268-9.452,21.268-21.268C333.194,413.538,323.742,403.298,311.926,403.298z"/>
<g>
	<path id="SVGCleanerId_0_1_" style="fill:#183651;" d="M350.523,505.698H163.84c-26.782,0-48.049-21.268-48.049-48.049V200.074
		l-22.843-27.569c-1.575-2.363-2.363-5.514-0.788-8.665c1.575-2.363,3.938-4.726,7.089-4.726h291.446
		c4.726,0,7.877,3.151,7.877,7.877v290.659C398.572,484.431,377.305,505.698,350.523,505.698z M115.791,175.655l14.178,17.329
		c0.788,1.575,1.575,3.151,1.575,4.726v260.726c0,18.117,14.178,32.295,32.295,32.295h187.471c18.117,0,32.295-14.178,32.295-32.295
		V175.655H115.791z"/>
</g>
<!-- <g>
	<rect x="453.711" y="167.778" style="fill:#183651;" width="15.754" height="15.754"/>
	<rect x="453.711" y="219.766" style="fill:#183651;" width="15.754" height="15.754"/>
	<rect x="453.711" y="323.742" style="fill:#183651;" width="15.754" height="15.754"/>
	<rect x="453.711" y="115.791" style="fill:#183651;" width="15.754" height="15.754"/>
	<rect x="453.711" y="271.754" style="fill:#183651;" width="15.754" height="15.754"/>
	<rect x="453.711" y="375.729" style="fill:#183651;" width="15.754" height="15.754"/>
	<rect x="40.172" y="167.778" style="fill:#183651;" width="15.754" height="15.754"/>
	<rect x="40.172" y="219.766" style="fill:#183651;" width="15.754" height="15.754"/>
	<rect x="40.172" y="323.742" style="fill:#183651;" width="15.754" height="15.754"/>
	<rect x="40.172" y="115.791" style="fill:#183651;" width="15.754" height="15.754"/>
	<rect x="40.172" y="271.754" style="fill:#183651;" width="15.754" height="15.754"/>
	<rect x="40.172" y="375.729" style="fill:#183651;" width="15.754" height="15.754"/>
</g> -->
<g>
</g>
<g>
</g>
<g>
</g>
<g>
</g>
<g>
</g>
<g>
</g>
<g>
</g>
<g>
</g>
<g>
</g>
<g>
</g>
<g>
</g>
<g>
</g>
<g>
</g>
<g>
</g>
<g>
</g>
</svg>
